<svg width="580" height="400" xmlns="http://www.w3.org/2000/svg">
 <!-- Created with Method Draw - http://github.com/duopixel/Method-Draw/ -->
 <g>
  <title>background</title>
  <rect fill="#fff" id="canvas_background" height="402" width="582" y="-1" x="-1"/>
  <g display="none" overflow="visible" y="0" x="0" height="100%" width="100%" id="canvasGrid">
   <rect fill="url(#gridpattern)" stroke-width="0" y="0" x="0" height="100%" width="100%"/>
  </g>
 </g>
 <g>
  <title>Layer 1</title>
  <line stroke="#fff" stroke-linecap="undefined" stroke-linejoin="undefined" id="svg_1" y2="324.999995" x2="485.999996" y1="95" x1="111" stroke-width="1.5" fill="none"/>
  <rect stroke="#000000" id="svg_2" height="291.999987" width="426.000014" y="51.000013" x="83" stroke-width="2.5" fill="#ffffff"/>
  <line stroke-linecap="null" stroke-linejoin="null" id="svg_4" y2="344.751596" x2="183" y1="51" x1="183" stroke-width="2.5" stroke="#000000" fill="none"/>
  <line stroke-linecap="null" stroke-linejoin="null" id="svg_5" y2="343.55238" x2="297" y1="50" x1="297" stroke-width="2.5" stroke="#000000" fill="none"/>
  <line stroke-linecap="null" stroke-linejoin="null" id="svg_8" y2="201" x2="525.128336" y1="201" x1="490" stroke-width="5.5" stroke="#000000" fill="none"/>
  <line stroke-linecap="null" stroke-linejoin="null" id="svg_9" y2="213" x2="540.030762" y1="213" x1="475" stroke-width="4.5" stroke="#000000" fill="none"/>
  <line stroke-linecap="null" stroke-linejoin="null" id="svg_10" y2="207" x2="476.968758" y1="207" x1="541" stroke-width="7.5" stroke="#ffffff" fill="none"/>
  <rect id="svg_11" height="246.315517" width="70.526238" y="71.579098" x="46.842375" stroke-width="7.5" fill="#ff0000"/>
  <rect id="svg_13" height="246.315517" width="70.526238" y="71.579098" x="145.789633" stroke-width="7.5" fill="#ff0000"/>
  <rect id="svg_14" height="246.315517" width="70.526238" y="70.526467" x="260.52635" stroke-width="7.5" fill="#ff0000"/>
  <text stroke="#000000" transform="matrix(1.823717713356018,0,0,1.73101007938385,-61.12242844887078,-123.89478642307222) " xml:space="preserve" text-anchor="start" font-family="Helvetica, Arial, sans-serif" font-size="24" id="svg_15" y="189.754659" x="69.593251" stroke-width="0" fill="#000000">R</text>
  <text stroke="#000000" transform="matrix(1.823717713356018,0,0,1.73101007938385,-61.12242844887078,-123.89478642307222) " xml:space="preserve" text-anchor="start" font-family="Helvetica, Arial, sans-serif" font-size="24" id="svg_16" y="187.930353" x="125.580615" stroke-width="0" fill="#000000">R</text>
  <text stroke="#000000" transform="matrix(1.823717713356018,0,0,1.73101007938385,-61.12242844887078,-123.89478642307222) " xml:space="preserve" text-anchor="start" font-family="Helvetica, Arial, sans-serif" font-size="24" id="svg_17" y="187.930353" x="187.91706" stroke-width="0" fill="#000000">R</text>
 </g>
</svg>