<svg width="350" height="200"><g transform="translate(50,50)"><g class="x axis" transform="translate(0,100)" fill="none" font-size="10" font-family="sans-serif" text-anchor="middle"><path class="domain" stroke="#000" d="M0.5,6V0.5H250.5V6"></path><g class="tick" opacity="1" transform="translate(0.5,0)"><line stroke="#000" y2="6"></line><text fill="#000" y="9" dy="0.71em">0</text></g><g class="tick" opacity="1" transform="translate(26.81578947368421,0)"><line stroke="#000" y2="6"></line><text fill="#000" y="9" dy="0.71em">2</text></g><g class="tick" opacity="1" transform="translate(53.13157894736842,0)"><line stroke="#000" y2="6"></line><text fill="#000" y="9" dy="0.71em">4</text></g><g class="tick" opacity="1" transform="translate(79.44736842105263,0)"><line stroke="#000" y2="6"></line><text fill="#000" y="9" dy="0.71em">6</text></g><g class="tick" opacity="1" transform="translate(105.76315789473684,0)"><line stroke="#000" y2="6"></line><text fill="#000" y="9" dy="0.71em">8</text></g><g class="tick" opacity="1" transform="translate(132.07894736842104,0)"><line stroke="#000" y2="6"></line><text fill="#000" y="9" dy="0.71em">10</text></g><g class="tick" opacity="1" transform="translate(158.39473684210526,0)"><line stroke="#000" y2="6"></line><text fill="#000" y="9" dy="0.71em">12</text></g><g class="tick" opacity="1" transform="translate(184.71052631578945,0)"><line stroke="#000" y2="6"></line><text fill="#000" y="9" dy="0.71em">14</text></g><g class="tick" opacity="1" transform="translate(211.02631578947367,0)"><line stroke="#000" y2="6"></line><text fill="#000" y="9" dy="0.71em">16</text></g><g class="tick" opacity="1" transform="translate(237.3421052631579,0)"><line stroke="#000" y2="6"></line><text fill="#000" y="9" dy="0.71em">18</text></g></g><g class="y axis" fill="none" font-size="10" font-family="sans-serif" text-anchor="end"><path class="domain" stroke="#000" d="M-6,100.5H0.5V0.5H-6"></path><g class="tick" opacity="1" transform="translate(0,100.5)"><line stroke="#000" x2="-6"></line><text fill="#000" x="-9" dy="0.32em">0.000</text></g><g class="tick" opacity="1" transform="translate(0,87.16666666666667)"><line stroke="#000" x2="-6"></line><text fill="#000" x="-9" dy="0.32em">0.002</text></g><g class="tick" opacity="1" transform="translate(0,73.83333333333333)"><line stroke="#000" x2="-6"></line><text fill="#000" x="-9" dy="0.32em">0.004</text></g><g class="tick" opacity="1" transform="translate(0,60.5)"><line stroke="#000" x2="-6"></line><text fill="#000" x="-9" dy="0.32em">0.006</text></g><g class="tick" opacity="1" transform="translate(0,47.166666666666664)"><line stroke="#000" x2="-6"></line><text fill="#000" x="-9" dy="0.32em">0.008</text></g><g class="tick" opacity="1" transform="translate(0,33.83333333333333)"><line stroke="#000" x2="-6"></line><text fill="#000" x="-9" dy="0.32em">0.010</text></g><g class="tick" opacity="1" transform="translate(0,20.5)"><line stroke="#000" x2="-6"></line><text fill="#000" x="-9" dy="0.32em">0.012</text></g><g class="tick" opacity="1" transform="translate(0,7.166666666666671)"><line stroke="#000" x2="-6"></line><text fill="#000" x="-9" dy="0.32em">0.014</text></g></g><path class="line" d="M0,33.33333333333333C4.385964912280701,33.111111111111114,8.771929824561404,32.88888888888889,13.157894736842104,32.66666666666667C17.543859649122805,32.44444444444445,21.929824561403507,32.22222222222222,26.31578947368421,32C30.70175438596491,31.777777777777775,35.08771929824562,31.555555555555554,39.473684210526315,31.33333333333333C43.859649122807014,31.111111111111104,48.24561403508772,30.88888888888888,52.63157894736842,30.666666666666657C57.017543859649116,30.444444444444436,61.40350877192982,30.22222222222222,65.78947368421052,30C70.17543859649122,29.77777777777778,74.56140350877193,29.555555555555554,78.94736842105263,29.33333333333333C83.33333333333333,29.111111111111104,87.71929824561403,28.888888888888882,92.10526315789473,28.666666666666657C96.49122807017542,28.444444444444432,100.87719298245614,28.22222222222221,105.26315789473684,27.999999999999986C109.64912280701753,27.77777777777776,114.03508771929825,27.555555555555536,118.42105263157895,27.333333333333314C122.80701754385964,27.111111111111093,127.19298245614034,26.88888888888888,131.57894736842104,26.666666666666657C135.96491228070175,26.444444444444436,140.35087719298244,26.22222222222221,144.73684210526315,25.999999999999986C149.12280701754386,25.77777777777776,153.50877192982455,25.555555555555532,157.89473684210526,25.333333333333314C162.28070175438597,25.111111111111097,166.66666666666666,24.888888888888893,171.05263157894737,24.66666666666667C175.43859649122805,24.44444444444445,179.82456140350877,24.22222222222221,184.21052631578945,23.999999999999986C188.59649122807016,23.77777777777776,192.98245614035088,23.555555555555546,197.3684210526316,23.33333333333333C201.75438596491227,23.11111111111111,206.140350877193,22.888888888888893,210.52631578947367,22.66666666666667C214.91228070175438,22.44444444444445,219.29824561403507,22.22222222222222,223.68421052631578,22C228.0701754385965,21.77777777777778,232.45614035087718,21.555555555555564,236.8421052631579,21.333333333333343C241.2280701754386,21.11111111111112,245.6140350877193,20.888888888888896,250,20.66666666666667"></path><circle class="dot" cx="0" cy="33.33333333333333" r="5"></circle><circle class="dot" cx="13.157894736842104" cy="32.66666666666667" r="5"></circle><circle class="dot" cx="26.31578947368421" cy="32" r="5"></circle><circle class="dot" cx="39.473684210526315" cy="31.33333333333333" r="5"></circle><circle class="dot" cx="52.63157894736842" cy="30.666666666666657" r="5"></circle><circle class="dot" cx="65.78947368421052" cy="30" r="5"></circle><circle class="dot" cx="78.94736842105263" cy="29.33333333333333" r="5"></circle><circle class="dot" cx="92.10526315789473" cy="28.666666666666657" r="5"></circle><circle class="dot" cx="105.26315789473684" cy="27.999999999999986" r="5"></circle><circle class="dot" cx="118.42105263157895" cy="27.333333333333314" r="5"></circle><circle class="dot" cx="131.57894736842104" cy="26.666666666666657" r="5"></circle><circle class="dot" cx="144.73684210526315" cy="25.999999999999986" r="5"></circle><circle class="dot" cx="157.89473684210526" cy="25.333333333333314" r="5"></circle><circle class="dot" cx="171.05263157894737" cy="24.66666666666667" r="5"></circle><circle class="dot" cx="184.21052631578945" cy="23.999999999999986" r="5"></circle><circle class="dot" cx="197.3684210526316" cy="23.33333333333333" r="5"></circle><circle class="dot" cx="210.52631578947367" cy="22.66666666666667" r="5"></circle><circle class="dot" cx="223.68421052631578" cy="22" r="5"></circle><circle class="dot" cx="236.8421052631579" cy="21.333333333333343" r="5"></circle><circle class="dot" cx="250" cy="20.66666666666667" r="5"></circle></g></svg>
