<svg width="350" height="200"><g transform="translate(50,50)"><g class="x axis" transform="translate(0,100)" fill="none" font-size="10" font-family="sans-serif" text-anchor="middle"><path class="domain" stroke="#000" d="M0.5,6V0.5H250.5V6"></path><g class="tick" opacity="1" transform="translate(0.5,0)"><line stroke="#000" y2="6"></line><text fill="#000" y="9" dy="0.71em">0</text></g><g class="tick" opacity="1" transform="translate(26.81578947368421,0)"><line stroke="#000" y2="6"></line><text fill="#000" y="9" dy="0.71em">2</text></g><g class="tick" opacity="1" transform="translate(53.13157894736842,0)"><line stroke="#000" y2="6"></line><text fill="#000" y="9" dy="0.71em">4</text></g><g class="tick" opacity="1" transform="translate(79.44736842105263,0)"><line stroke="#000" y2="6"></line><text fill="#000" y="9" dy="0.71em">6</text></g><g class="tick" opacity="1" transform="translate(105.76315789473684,0)"><line stroke="#000" y2="6"></line><text fill="#000" y="9" dy="0.71em">8</text></g><g class="tick" opacity="1" transform="translate(132.07894736842104,0)"><line stroke="#000" y2="6"></line><text fill="#000" y="9" dy="0.71em">10</text></g><g class="tick" opacity="1" transform="translate(158.39473684210526,0)"><line stroke="#000" y2="6"></line><text fill="#000" y="9" dy="0.71em">12</text></g><g class="tick" opacity="1" transform="translate(184.71052631578945,0)"><line stroke="#000" y2="6"></line><text fill="#000" y="9" dy="0.71em">14</text></g><g class="tick" opacity="1" transform="translate(211.02631578947367,0)"><line stroke="#000" y2="6"></line><text fill="#000" y="9" dy="0.71em">16</text></g><g class="tick" opacity="1" transform="translate(237.3421052631579,0)"><line stroke="#000" y2="6"></line><text fill="#000" y="9" dy="0.71em">18</text></g></g><g class="y axis" fill="none" font-size="10" font-family="sans-serif" text-anchor="end"><path class="domain" stroke="#000" d="M-6,100.5H0.5V0.5H-6"></path><g class="tick" opacity="1" transform="translate(0,100.5)"><line stroke="#000" x2="-6"></line><text fill="#000" x="-9" dy="0.32em">0</text></g><g class="tick" opacity="1" transform="translate(0,86.61111111111111)"><line stroke="#000" x2="-6"></line><text fill="#000" x="-9" dy="0.32em">500</text></g><g class="tick" opacity="1" transform="translate(0,72.72222222222223)"><line stroke="#000" x2="-6"></line><text fill="#000" x="-9" dy="0.32em">1,000</text></g><g class="tick" opacity="1" transform="translate(0,58.83333333333333)"><line stroke="#000" x2="-6"></line><text fill="#000" x="-9" dy="0.32em">1,500</text></g><g class="tick" opacity="1" transform="translate(0,44.94444444444444)"><line stroke="#000" x2="-6"></line><text fill="#000" x="-9" dy="0.32em">2,000</text></g><g class="tick" opacity="1" transform="translate(0,31.055555555555557)"><line stroke="#000" x2="-6"></line><text fill="#000" x="-9" dy="0.32em">2,500</text></g><g class="tick" opacity="1" transform="translate(0,17.166666666666657)"><line stroke="#000" x2="-6"></line><text fill="#000" x="-9" dy="0.32em">3,000</text></g><g class="tick" opacity="1" transform="translate(0,3.2777777777777857)"><line stroke="#000" x2="-6"></line><text fill="#000" x="-9" dy="0.32em">3,500</text></g></g><path class="line" d="M0,0C4.385964912280701,0.3316508121400344,8.771929824561404,0.6633016242800689,13.157894736842104,0.9900990099009874C17.543859649122805,1.316896395521906,21.929824561403507,1.6403639221717916,26.31578947368421,1.9607843137255117C30.70175438596491,2.2812047052792317,35.08771929824562,2.5983931038185824,39.473684210526315,2.9126213592233086C43.859649122807014,3.2268496146280348,48.24561403508772,3.5379399457069574,52.63157894736842,3.846153846153868C57.017543859649116,4.154367746600779,61.40350877192982,4.459534176515324,65.78947368421052,4.761904761904773C70.17543859649122,5.064275347294223,74.56140350877193,5.363685473013632,78.94736842105263,5.660377358490564C83.33333333333333,5.957069243967496,87.71929824561403,6.250884399946889,92.10526315789473,6.542056074766364C96.49122807017542,6.8332277495858404,100.87719298245614,7.121603297544318,105.26315789473684,7.407407407407419C109.64912280701753,7.6932115172705196,114.03508771929825,7.976297120028022,118.42105263157895,8.256880733944968C122.80701754385964,8.537464347861913,127.19298245614034,8.81540422824827,131.57894736842104,9.090909090909093C135.96491228070175,9.366413953569918,140.35087719298244,9.639347139347139,144.73684210526315,9.909909909909913C149.12280701754386,10.180472680472688,153.50877192982455,10.44853323614388,157.89473684210526,10.714285714285737C162.28070175438597,10.980038192427592,166.66666666666666,11.24335543874434,171.05263157894737,11.504424778761049C175.43859649122805,11.765494118777758,179.82456140350877,12.024192840701236,184.21052631578945,12.280701754385987C188.59649122807016,12.53721066807074,192.98245614035088,12.791411311887916,197.3684210526316,13.043478260869563C201.75438596491227,13.295545209851207,206.140350877193,13.545364070101696,210.52631578947367,13.793103448275858C214.91228070175438,14.04084282645002,219.29824561403507,14.286392223271248,223.68421052631578,14.529914529914535C228.0701754385965,14.773436836557822,232.45614035087718,15.014825284017702,236.8421052631579,15.254237288135585C241.2280701754386,15.493649292253467,245.6140350877193,15.730017923437652,250,15.966386554621835"></path><circle class="dot" cx="0" cy="0" r="5"></circle><circle class="dot" cx="13.157894736842104" cy="0.9900990099009874" r="5"></circle><circle class="dot" cx="26.31578947368421" cy="1.9607843137255117" r="5"></circle><circle class="dot" cx="39.473684210526315" cy="2.9126213592233086" r="5"></circle><circle class="dot" cx="52.63157894736842" cy="3.846153846153868" r="5"></circle><circle class="dot" cx="65.78947368421052" cy="4.761904761904773" r="5"></circle><circle class="dot" cx="78.94736842105263" cy="5.660377358490564" r="5"></circle><circle class="dot" cx="92.10526315789473" cy="6.542056074766364" r="5"></circle><circle class="dot" cx="105.26315789473684" cy="7.407407407407419" r="5"></circle><circle class="dot" cx="118.42105263157895" cy="8.256880733944968" r="5"></circle><circle class="dot" cx="131.57894736842104" cy="9.090909090909093" r="5"></circle><circle class="dot" cx="144.73684210526315" cy="9.909909909909913" r="5"></circle><circle class="dot" cx="157.89473684210526" cy="10.714285714285737" r="5"></circle><circle class="dot" cx="171.05263157894737" cy="11.504424778761049" r="5"></circle><circle class="dot" cx="184.21052631578945" cy="12.280701754385987" r="5"></circle><circle class="dot" cx="197.3684210526316" cy="13.043478260869563" r="5"></circle><circle class="dot" cx="210.52631578947367" cy="13.793103448275858" r="5"></circle><circle class="dot" cx="223.68421052631578" cy="14.529914529914535" r="5"></circle><circle class="dot" cx="236.8421052631579" cy="15.254237288135585" r="5"></circle><circle class="dot" cx="250" cy="15.966386554621835" r="5"></circle></g></svg>
